<svg width="24" height="24" viewBox="0 0 24 24" fill="none" xmlns="http://www.w3.org/2000/svg">
<path xmlns="http://www.w3.org/2000/svg" d="M2.75 2.25C3.16421 2.25 3.5 2.58579 3.5 3V9.59918L6.2585 7.39239C6.52558 7.17872 6.90339 7.17282 7.17702 7.37804L9.72129 9.28624L18.6668 2.40556C18.9951 2.15301 19.466 2.21445 19.7185 2.54277C19.971 2.8711 19.9096 3.34198 19.5813 3.59452L10.1843 10.8225C9.91739 11.0278 9.54639 11.0301 9.27702 10.828L6.74184 8.92665L3.5 11.5201V12.9239L3.84415 12.6486L4.78119 13.8199L3.5 14.8449V20.25H11.6087C11.8638 20.7955 12.1924 21.2998 12.5818 21.75H2.75C2.33579 21.75 2 21.4142 2 21V3C2 2.58579 2.33579 2.25 2.75 2.25Z" fill="black"/>
<path xmlns="http://www.w3.org/2000/svg" d="M20.0715 5.59549C20.324 5.9238 20.2626 6.39469 19.9343 6.64724L18.3648 7.85452L17.4503 6.66559L19.0197 5.4583C19.348 5.20575 19.8189 5.26717 20.0715 5.59549Z" fill="black"/>
<path xmlns="http://www.w3.org/2000/svg" d="M13.4898 11.6045L16.6288 9.18996L15.7142 8.00102L12.5753 10.4156L13.4898 11.6045Z" fill="black"/>
<path xmlns="http://www.w3.org/2000/svg" d="M6.2585 10.7171C6.52558 10.5035 6.90339 10.4976 7.17702 10.7028L8.37702 11.6028L7.47702 12.8028L6.74184 12.2514L5.85989 12.9569L4.92284 11.7856L6.2585 10.7171Z" fill="black"/>
<path xmlns="http://www.w3.org/2000/svg" d="M10.1843 14.1472L11.7538 12.94L10.8392 11.751L9.72128 12.611L8.97702 12.0528L8.07702 13.2528L9.27702 14.1528C9.5464 14.3548 9.9174 14.3525 10.1843 14.1472Z" fill="black"/>
<path xmlns="http://www.w3.org/2000/svg" d="M17.914 17.8685C18.2075 17.5639 18.388 17.1496 18.388 16.693C18.388 15.7572 17.6299 14.999 16.694 14.999C15.7581 14.999 15 15.7572 15 16.693C15 17.6289 15.7581 18.387 16.694 18.387C17.1502 18.387 17.5641 18.2069 17.8686 17.9139C17.8756 17.9059 17.8829 17.8982 17.8905 17.8906C17.8981 17.8829 17.906 17.8755 17.914 17.8685Z" fill="black"/>
<path xmlns="http://www.w3.org/2000/svg" d="M17.5 23C20.5376 23 23 20.5376 23 17.5C23 14.4624 20.5376 12 17.5 12C14.4624 12 12 14.4624 12 17.5C12 20.5376 14.4624 23 17.5 23ZM16.694 13.999C18.1821 13.999 19.388 15.2049 19.388 16.693C19.388 17.2567 19.215 17.7798 18.9192 18.2123L20.8536 20.1466C21.0488 20.3419 21.0488 20.6584 20.8536 20.8537C20.6583 21.049 20.3417 21.049 20.1465 20.8537L18.2119 18.9192C17.7797 19.2144 17.2571 19.387 16.694 19.387C15.2059 19.387 14 18.1812 14 16.693C14 15.2049 15.2059 13.999 16.694 13.999Z" fill="black"/>
</svg>