<svg width="24" height="24" viewBox="0 0 24 24" fill="none" xmlns="http://www.w3.org/2000/svg">
<path xmlns="http://www.w3.org/2000/svg" d="M4.24988 2.75684C4.24988 2.34262 3.91409 2.00684 3.49988 2.00684C3.08566 2.00684 2.74988 2.34262 2.74988 2.75684V9.487C2.74972 9.49599 2.74971 9.50499 2.74988 9.514V21C2.74988 21.4142 3.08566 21.75 3.49988 21.75H21.7499C22.1641 21.75 22.4999 21.4142 22.4999 21C22.4999 20.5858 22.1641 20.25 21.7499 20.25H4.24988V9.97993L9.86854 7.3867L14.0017 11.0606C14.282 11.3098 14.7033 11.3136 14.988 11.0695L21.988 5.06946C22.3025 4.79989 22.3389 4.32641 22.0694 4.01192C21.7998 3.69743 21.3263 3.661 21.0118 3.93057L14.5089 9.50453L10.4982 5.93947C10.2754 5.74139 9.95635 5.69412 9.68564 5.81906L4.24988 8.32787V2.75684Z" fill="black"/>
</svg>