<svg width="24" height="24" viewBox="0 0 24 24" fill="none" xmlns="http://www.w3.org/2000/svg">
<path xmlns="http://www.w3.org/2000/svg" d="M5.25 4H18.75C20.5449 4 22 5.45507 22 7.25V16.75C22 18.5449 20.5449 20 18.75 20H5.25C3.45507 20 2 18.5449 2 16.75V7.25C2 5.45507 3.45507 4 5.25 4ZM3.5 7.25V7.5H20.5V7.25C20.5 6.2835 19.7165 5.5 18.75 5.5H5.25C4.2835 5.5 3.5 6.2835 3.5 7.25ZM3.5 9V13H6.25006V9H3.5ZM3.5 14.5V16.75C3.5 17.7165 4.2835 18.5 5.25 18.5H6.25006V14.5H3.5ZM7.75006 18.5H11.25L11.25 14.5H7.75006V18.5ZM12.75 18.5H16.2524L16.2524 14.5H12.75L12.75 18.5ZM17.7524 18.5H18.75C19.7165 18.5 20.5 17.7165 20.5 16.75V14.5H17.7524L17.7524 18.5ZM20.5 13V9H17.7524L17.7524 13H20.5ZM16.2524 9H12.75L12.75 13H16.2524L16.2524 9ZM11.25 9H7.75006V13H11.25L11.25 9Z" fill="black"/>
</svg>