<svg width="24" height="24" viewBox="0 0 24 24" fill="none" xmlns="http://www.w3.org/2000/svg">
<path d="M9.375 7.49976C8.96079 7.49976 8.625 7.83554 8.625 8.24976V10.4998H6.375C5.96079 10.4998 5.625 10.8355 5.625 11.2498V15.7498C5.625 16.164 5.96079 16.4998 6.375 16.4998H12.375C12.7892 16.4998 13.125 16.164 13.125 15.7498V8.24976C13.125 7.83554 12.7892 7.49976 12.375 7.49976H9.375ZM10.125 14.9998V8.99976H11.625V14.9998H10.125ZM7.125 11.9998H8.625V14.9998H7.125V11.9998Z" fill="#333E48"/>
<path d="M16.125 10.4998C16.9534 10.4998 17.625 9.82818 17.625 8.99976C17.625 8.17133 16.9534 7.49976 16.125 7.49976C15.2966 7.49976 14.625 8.17133 14.625 8.99976C14.625 9.82818 15.2966 10.4998 16.125 10.4998Z" fill="#333E48"/>
<path d="M14.625 12.7498C14.625 12.3355 14.9608 11.9998 15.375 11.9998H16.875C17.2892 11.9998 17.625 12.3355 17.625 12.7498C17.625 13.164 17.2892 13.4998 16.875 13.4998H15.375C14.9608 13.4998 14.625 13.164 14.625 12.7498Z" fill="#333E48"/>
<path d="M15.375 14.9998C14.9608 14.9998 14.625 15.3355 14.625 15.7498C14.625 16.164 14.9608 16.4998 15.375 16.4998H16.875C17.2892 16.4998 17.625 16.164 17.625 15.7498C17.625 15.3355 17.2892 14.9998 16.875 14.9998H15.375Z" fill="#333E48"/>
<path d="M5.25 4.50562C3.17893 4.50562 1.5 6.18455 1.5 8.25562V15.7443C1.5 17.8153 3.17893 19.4943 5.25 19.4943H18.75C20.8211 19.4943 22.5 17.8153 22.5 15.7443V8.25562C22.5 6.18455 20.8211 4.50562 18.75 4.50562H5.25ZM3 8.25562C3 7.01297 4.00736 6.00562 5.25 6.00562H18.75C19.9926 6.00562 21 7.01297 21 8.25562V15.7443C21 16.9869 19.9926 17.9943 18.75 17.9943H5.25C4.00736 17.9943 3 16.9869 3 15.7443V8.25562Z" fill="#333E48"/>
</svg>
