<svg xmlns="http://www.w3.org/2000/svg" width="16" height="16" viewBox="0 0 16 16" fill="none">
  <path d="M1 3C1 1.89543 1.89543 1 3 1H13C14.1046 1 15 1.89543 15 3V13C15 14.1046 14.1046 15 13 15H3C1.89543 15 1 14.1046 1 13V3ZM3 2C2.44772 2 2 2.44772 2 3V13C2 13.5523 2.44772 14 3 14H13C13.5523 14 14 13.5523 14 13V3C14 2.44772 13.5523 2 13 2H3ZM8.00006 4.00009C8.2762 4.00009 8.50006 4.22395 8.50006 4.50009V7.50009H11.5001C11.7762 7.50009 12.0001 7.72395 12.0001 8.00009C12.0001 8.27623 11.7762 8.50009 11.5001 8.50009H8.50006V11.5001C8.50006 11.7762 8.2762 12.0001 8.00006 12.0001C7.72392 12.0001 7.50006 11.7762 7.50006 11.5001V8.50009H4.50006C4.22392 8.50009 4.00006 8.27623 4.00006 8.00009C4.00006 7.72395 4.22392 7.50009 4.50006 7.50009H7.50006V4.50009C7.50006 4.22395 7.72392 4.00009 8.00006 4.00009Z" fill="#3B99FC"/>
</svg>