<svg width="24" height="24" viewBox="0 0 24 24" fill="none" xmlns="http://www.w3.org/2000/svg">
<circle cx="12" cy="12" r="12" fill="#F28C37"/>
<path d="M7.52843 7C6.68422 7 6 7.70738 6 8.58016V14.0598C6 14.9326 6.68422 15.64 7.52843 15.64H9.79846C9.74317 15.3287 9.71429 15.0078 9.71429 14.68H9.48214V7.96H15.6144C15.9458 7.96 16.2143 8.23758 16.2143 8.58016V9.59868C16.538 9.69331 16.8487 9.82012 17.1429 9.97555V8.58016C17.1429 7.70738 16.4586 7 15.6144 7H7.52843ZM8.55357 7.96V14.68H7.52843C7.19706 14.68 6.92857 14.4024 6.92857 14.0598V8.58016C6.92857 8.23758 7.19706 7.96 7.52843 7.96H8.55357Z" fill="white"/>
<path d="M14.8213 13.7939C14.3478 13.7939 13.9643 14.1904 13.9643 14.68C13.9643 15.1696 14.3478 15.5661 14.8213 15.5661C15.2949 15.5661 15.6784 15.1696 15.6784 14.68C15.6784 14.1904 15.2949 13.7939 14.8213 13.7939Z" fill="white"/>
<path d="M14.8214 19C17.1289 19 19 17.0656 19 14.68C19 12.2944 17.1289 10.36 14.8214 10.36C12.5139 10.36 10.6429 12.2944 10.6429 14.68C10.6429 17.0656 12.5139 19 14.8214 19ZM14.8241 11.8C15.034 11.8029 15.2429 11.8278 15.4472 11.8749C15.5363 11.895 15.6032 11.9728 15.6134 12.0669L15.6617 12.5181C15.684 12.7254 15.853 12.8819 16.0545 12.8819C16.1083 12.8819 16.1622 12.8704 16.2123 12.8474L16.6125 12.6659C16.6961 12.6285 16.7927 12.6486 16.8549 12.7178C17.1437 13.0374 17.3591 13.4205 17.4845 13.8381C17.5114 13.9283 17.4808 14.0262 17.4074 14.0819L17.0527 14.3526C16.9515 14.4294 16.892 14.5514 16.892 14.681C16.892 14.8106 16.9515 14.9325 17.0536 15.0102L17.4083 15.281C17.4817 15.3366 17.5133 15.4346 17.4863 15.5248C17.361 15.9424 17.1455 16.3254 16.8568 16.6451C16.7945 16.7133 16.697 16.7344 16.6144 16.697L16.2123 16.5146C16.0972 16.4627 15.9653 16.4704 15.8567 16.5347C15.748 16.6 15.6756 16.7142 15.6617 16.8429L15.6134 17.2941C15.6032 17.3872 15.5382 17.464 15.45 17.4851C15.0358 17.5869 14.605 17.5869 14.1908 17.4851C14.1026 17.463 14.0376 17.3872 14.0274 17.2941L13.9791 16.8438C13.9652 16.7152 13.8928 16.601 13.7841 16.5366C13.6755 16.4723 13.5436 16.4646 13.4294 16.5165L13.0273 16.6989C12.9438 16.7363 12.8472 16.7162 12.785 16.647C12.4962 16.3274 12.2808 15.9443 12.1554 15.5258C12.1285 15.4355 12.16 15.3376 12.2334 15.2819L12.589 15.0112C12.6903 14.9344 12.7497 14.8125 12.7497 14.6829C12.7497 14.5533 12.6903 14.4314 12.589 14.3536L12.2343 14.0838C12.161 14.0282 12.1294 13.9302 12.1563 13.84C12.2817 13.4224 12.4971 13.0394 12.7859 12.7197C12.8481 12.6515 12.9456 12.6304 13.0283 12.6678L13.4285 12.8493C13.5436 12.9011 13.6755 12.8934 13.785 12.8282C13.8937 12.7629 13.9661 12.6486 13.98 12.519L14.0283 12.0688C14.0385 11.9747 14.1054 11.8979 14.1945 11.8768C14.3998 11.8298 14.6087 11.8048 14.8232 11.8019L14.8241 11.8Z" fill="white"/>
</svg>
