<svg width="397" height="382" viewBox="0 0 397 382" fill="none" xmlns="http://www.w3.org/2000/svg">
<path fill-rule="evenodd" clip-rule="evenodd" d="M187.152 0H22.1826C16.189 0.0243911 10.5167 2.60799 6.38683 7.07235C2.26639 11.5265 0.000401855 17.4967 0.000443863 23.6625V118.456C0.000443863 124.618 2.27042 130.583 6.3963 135.026C10.5318 139.48 16.209 142.045 22.1994 142.045H43.5582L68.5092 165.549C70.1308 167.077 72.6718 167.043 74.2519 165.472L97.823 142.045H187.152C189.432 142.045 191.281 140.196 191.281 137.916C191.281 135.635 189.432 133.786 187.152 133.786H96.1199C95.0291 133.786 93.9825 134.218 93.2088 134.987L71.2638 156.798L48.0285 134.91C47.2623 134.188 46.2495 133.786 45.1969 133.786H22.1994C18.6052 133.786 15.0904 132.251 12.4485 129.406C9.79702 126.551 8.25952 122.617 8.25952 118.456V23.6625C8.2595 19.4929 9.79656 15.5487 12.4496 12.6809C15.0912 9.82522 18.6075 8.27592 22.2084 8.25907H187.143C190.744 8.27592 194.26 9.82522 196.901 12.6809C199.554 15.5488 201.092 19.4929 201.092 23.6625V49.5544C201.092 51.8351 202.94 53.684 205.221 53.684C207.502 53.684 209.351 51.8351 209.351 49.5544V23.6625C209.351 23.6625 209.351 23.6625 209.351 23.6625C209.351 17.4967 207.085 11.5265 202.964 7.07235C198.834 2.60799 193.162 0.0243911 187.168 3.41313e-05L187.152 0Z" fill="#221C35"/>
<path fill-rule="evenodd" clip-rule="evenodd" d="M209.347 45.3099H374.316C380.31 45.3343 385.982 47.9179 390.112 52.3823C394.233 56.8365 396.499 62.8066 396.499 68.9725V163.766C396.499 169.928 394.229 175.893 390.103 180.336C385.967 184.79 380.29 187.355 374.3 187.355H352.941L327.99 210.859C326.368 212.387 323.827 212.353 322.247 210.782L298.676 187.355H209.347C203.357 187.355 197.68 184.79 193.544 180.336C189.418 175.893 187.148 169.928 187.148 163.766V68.9725C187.148 68.9725 187.148 68.9725 187.148 68.9725C187.148 62.8066 189.414 56.8364 193.535 52.3823C197.665 47.9179 203.337 45.3343 209.331 45.31L209.347 45.3099ZM209.356 53.569C205.756 53.5859 202.239 55.1352 199.598 57.9908C196.945 60.8587 195.407 64.8029 195.408 68.9724V163.766C195.408 167.927 196.945 171.861 199.596 174.716C202.238 177.561 205.753 179.096 209.347 179.096H300.379C301.47 179.096 302.517 179.528 303.29 180.297L325.235 202.108L348.471 180.22C349.237 179.498 350.25 179.096 351.302 179.096H374.3C377.894 179.096 381.409 177.561 384.051 174.716C386.702 171.861 388.24 167.927 388.24 163.766V68.9724C388.24 64.8028 386.702 60.8587 384.049 57.9908C381.408 55.1352 377.892 53.5859 374.291 53.569H209.356Z" fill="#221C35"/>
<path fill-rule="evenodd" clip-rule="evenodd" d="M46.7998 227.125C46.7998 224.844 48.6487 222.995 50.9293 222.995H123.997C149.085 222.995 169.422 243.332 169.422 268.42V377.226C169.422 379.507 167.573 381.356 165.292 381.356C163.012 381.356 161.163 379.507 161.163 377.226V268.42C161.163 247.894 144.523 231.254 123.997 231.254H55.0589V351.599C55.0589 353.88 53.21 355.729 50.9293 355.729C48.6487 355.729 46.7998 353.88 46.7998 351.599V227.125Z" fill="#221C35"/>
<path fill-rule="evenodd" clip-rule="evenodd" d="M55.0331 352.936C54.8025 350.874 53.0531 349.271 50.9293 349.271C48.6487 349.271 46.7998 351.12 46.7998 353.4V357.066C46.7998 359.347 48.6487 361.195 50.9293 361.195H145.132C153.986 361.195 161.163 368.373 161.163 377.226C161.163 379.507 163.012 381.356 165.292 381.356C167.573 381.356 169.422 379.507 169.422 377.226C169.422 363.811 158.547 352.936 145.132 352.936H55.0331Z" fill="#221C35"/>
<path fill-rule="evenodd" clip-rule="evenodd" d="M283.786 227.125C283.786 224.844 281.937 222.995 279.657 222.995H206.589C181.501 222.995 161.164 243.332 161.164 268.42V377.226C161.164 379.507 163.013 381.356 165.293 381.356C167.574 381.356 169.423 379.507 169.423 377.226V268.42C169.423 247.894 186.063 231.254 206.589 231.254H275.527V254.655C275.527 256.935 277.376 258.784 279.657 258.784C281.937 258.784 283.786 256.935 283.786 254.655V227.125Z" fill="#221C35"/>
<path fill-rule="evenodd" clip-rule="evenodd" d="M279.657 330.363C277.376 330.363 275.527 332.212 275.527 334.492V354.308L185.95 352.842C172.327 352.619 161.164 363.601 161.164 377.226C161.164 379.507 163.013 381.356 165.293 381.356C167.574 381.356 169.423 379.507 169.423 377.226C169.423 368.215 176.806 360.952 185.815 361.1L279.589 362.635C280.696 362.653 281.764 362.226 282.553 361.45C283.342 360.673 283.786 359.613 283.786 358.506V334.492C283.786 332.212 281.937 330.363 279.657 330.363Z" fill="#221C35"/>
<path fill-rule="evenodd" clip-rule="evenodd" d="M307.787 249.944C284.091 249.944 264.725 269.616 264.725 294.079C264.725 318.541 284.091 338.213 307.787 338.213C331.482 338.213 350.849 318.541 350.849 294.079C350.849 269.616 331.482 249.944 307.787 249.944ZM256.466 294.079C256.466 265.23 279.356 241.685 307.787 241.685C336.218 241.685 359.108 265.23 359.108 294.079C359.108 322.927 336.218 346.472 307.787 346.472C279.356 346.472 256.466 322.927 256.466 294.079Z" fill="#221C35"/>
<path fill-rule="evenodd" clip-rule="evenodd" d="M331.239 332.471C333.136 331.206 335.7 331.719 336.965 333.617L362.706 372.228C363.971 374.125 363.458 376.689 361.561 377.954C359.663 379.22 357.099 378.707 355.834 376.809L330.093 338.198C328.828 336.3 329.341 333.736 331.239 332.471Z" fill="#221C35"/>
<path d="M271.173 117.004C271.173 123.085 266.242 128.016 260.161 128.016C254.079 128.016 249.148 123.085 249.148 117.004C249.148 110.922 254.079 105.991 260.161 105.991C266.242 105.991 271.173 110.922 271.173 117.004Z" fill="#00B2A9"/>
<path d="M111.497 108.745C111.497 114.826 106.567 119.757 100.485 119.757C94.4029 119.757 89.4727 114.826 89.4727 108.745C89.4727 102.663 94.4029 97.7324 100.485 97.7324C106.567 97.7324 111.497 102.663 111.497 108.745Z" fill="#00B2A9"/>
<path d="M337.245 117.004C337.245 123.085 332.315 128.016 326.233 128.016C320.151 128.016 315.221 123.085 315.221 117.004C315.221 110.922 320.151 105.991 326.233 105.991C332.315 105.991 337.245 110.922 337.245 117.004Z" fill="#00B2A9"/>
<path d="M304.209 117.004C304.209 123.085 299.278 128.016 293.197 128.016C287.115 128.016 282.185 123.085 282.185 117.004C282.185 110.922 287.115 105.991 293.197 105.991C299.278 105.991 304.209 110.922 304.209 117.004Z" fill="#00B2A9"/>
<path fill-rule="evenodd" clip-rule="evenodd" d="M105.761 82.3613C105.761 84.5153 104.015 86.2614 101.861 86.2614V86.2614C99.7067 86.2614 97.9605 84.5153 97.9605 82.3613V81.1952C97.9605 76.008 101.33 71.5112 106.35 70.0057C112.89 68.044 117.461 61.8974 117.461 55.0644C117.461 46.605 110.316 39.46 101.857 39.46C93.257 39.46 86.2602 46.4568 86.2602 55.0605V55.0605C86.2602 57.2145 84.5141 58.9606 82.3601 58.9606V58.9606C80.2061 58.9606 78.46 57.2145 78.46 55.0605V55.0605C78.46 42.155 88.9552 31.6598 101.857 31.6598C114.544 31.6598 125.261 42.3773 125.261 55.0644C125.261 65.3139 118.405 74.5299 108.592 77.4784C106.9 77.9854 105.761 79.4791 105.761 81.1952V82.3613Z" fill="#00B2A9"/>
<path fill-rule="evenodd" clip-rule="evenodd" d="M108.592 77.4784C106.899 77.9854 105.761 79.4791 105.761 81.1952V82.3613C105.761 84.5153 104.014 86.2614 101.86 86.2614C99.7064 86.2614 97.9603 84.5153 97.9603 82.3613V81.1952C97.9603 76.008 101.33 71.5112 106.349 70.0057C112.89 68.044 117.461 61.8974 117.461 55.0644C117.461 46.605 110.316 39.46 101.857 39.46C93.2568 39.46 86.2599 46.4568 86.2599 55.0605C86.2599 57.2145 84.5138 58.9606 82.3598 58.9606C80.2059 58.9606 78.4597 57.2145 78.4597 55.0605C78.4597 42.155 88.9549 31.6598 101.857 31.6598C114.544 31.6598 125.261 42.3773 125.261 55.0644C125.261 65.3139 118.405 74.5299 108.592 77.4784ZM104.372 63.4133C107.998 62.3257 110.578 58.8609 110.578 55.0644C110.578 50.4062 106.515 46.3426 101.857 46.3426C97.059 46.3426 93.1425 50.2568 93.1425 55.0605C93.1425 61.0156 88.3149 65.8432 82.3598 65.8432C76.4047 65.8432 71.5771 61.0156 71.5771 55.0605C71.5771 38.3546 85.153 24.7772 101.857 24.7772C118.345 24.7772 132.144 38.5762 132.144 55.0644C132.144 67.6365 124.223 78.9608 112.595 83.3823C112.081 88.8586 107.471 93.144 101.86 93.144C95.9053 93.144 91.0777 88.3164 91.0777 82.3613V81.1952C91.0777 72.9279 96.4803 65.7803 104.372 63.4133Z" fill="#00B2A9"/>
</svg>
